<svg width="259" height="20" viewBox="0 0 259 20" fill="none" xmlns="http://www.w3.org/2000/svg">
<path d="M2.93726 10.0158V15.0387H0V0.783021H5.56121C6.63166 0.783021 7.57158 0.979525 8.38097 1.37053C9.19686 1.76254 9.82348 2.31997 10.2608 3.04484C10.6981 3.76269 10.9168 4.5818 10.9168 5.50217C10.9168 6.89976 10.4371 8.00259 9.47759 8.81168C8.52453 9.61474 7.20284 10.0158 5.51229 10.0158H2.93726ZM2.93726 7.63666H5.56121C6.33791 7.63666 6.92863 7.45419 7.33337 7.08825C7.74453 6.72331 7.95016 6.20095 7.95016 5.52221C7.95016 4.82341 7.74453 4.25895 7.33337 3.82784C6.92211 3.39774 6.35425 3.17518 5.62979 3.16214H2.93726V7.63666ZM15.8142 15.0387H12.9749V0H15.8142V15.0387ZM23.1006 15.2342C21.5471 15.2342 20.2809 14.758 19.3018 13.8055C18.3293 12.8521 17.843 11.5828 17.843 9.99672V9.72202C17.843 8.65829 18.0485 7.70883 18.4598 6.87268C18.871 6.03152 19.452 5.38485 20.2026 4.9347C20.9597 4.47752 21.8214 4.24894 22.7873 4.24894C24.2364 4.24894 25.3754 4.70611 26.2043 5.61946C27.0398 6.53381 27.4576 7.82914 27.4576 9.50646V10.6624H20.7117C20.803 11.3542 21.0772 11.9086 21.5341 12.3267C21.9975 12.7448 22.5817 12.9533 23.2866 12.9533C24.3767 12.9533 25.2285 12.5583 25.8421 11.7683L27.2324 13.3253C26.8081 13.9258 26.2337 14.3961 25.5091 14.7349C24.7847 15.0678 23.9818 15.2342 23.1006 15.2342ZM22.7775 6.53982C22.2162 6.53982 21.7593 6.72931 21.4068 7.10829C21.0609 7.48626 20.8389 8.02866 20.7411 8.73347H24.677V8.50789C24.6639 7.88127 24.4942 7.39904 24.1678 7.05917C23.8415 6.71328 23.3781 6.53982 22.7775 6.53982ZM35.2825 15.0387C35.1519 14.784 35.0572 14.4672 34.9985 14.0893C34.3132 14.8522 33.4222 15.2342 32.3256 15.2342C31.2878 15.2342 30.4262 14.9344 29.7408 14.3339C29.062 13.7333 28.7226 12.9764 28.7226 12.062C28.7226 10.9392 29.1371 10.0779 29.966 9.47739C30.8016 8.87685 32.0058 8.57306 33.5788 8.56704H34.8811V7.95948C34.8811 7.47022 34.7537 7.07922 34.4992 6.78547C34.2511 6.49171 33.8562 6.34433 33.3145 6.34433C32.838 6.34433 32.4627 6.45862 32.1885 6.68721C31.9209 6.9158 31.7871 7.2286 31.7871 7.62662H28.9576C28.9576 7.01304 29.1469 6.44559 29.5255 5.92325C29.9041 5.4009 30.4392 4.99285 31.1311 4.7001C31.823 4.39932 32.5998 4.24894 33.4613 4.24894C34.7668 4.24894 35.8013 4.57879 36.565 5.23849C37.3353 5.89117 37.7204 6.81153 37.7204 7.99959V12.5914C37.7269 13.596 37.8672 14.3569 38.1413 14.8723V15.0387H35.2825ZM32.9425 13.0706C33.3601 13.0706 33.7452 12.9794 34.0977 12.7969C34.4503 12.6075 34.7113 12.3558 34.8811 12.043V10.2213H33.8236C32.4072 10.2213 31.6534 10.7116 31.5619 11.6901L31.5521 11.8565C31.5521 12.2094 31.6761 12.4992 31.9242 12.7278C32.1722 12.9563 32.5117 13.0706 32.9425 13.0706ZM45.7019 12.1112C45.7019 11.7653 45.529 11.4946 45.183 11.2991C44.8436 11.0966 44.2953 10.9171 43.5381 10.7597C41.0187 10.2313 39.7589 9.16058 39.7589 7.54843C39.7589 6.60901 40.1472 5.826 40.924 5.19938C41.7072 4.56575 42.7288 4.24894 43.9885 4.24894C45.3332 4.24894 46.4068 4.56575 47.2097 5.19938C48.0191 5.83201 48.4237 6.65412 48.4237 7.66572H45.5942C45.5942 7.26168 45.4637 6.92882 45.2026 6.66715C44.9414 6.39946 44.5335 6.26613 43.9788 6.26613C43.5022 6.26613 43.1335 6.37341 42.8723 6.58896C42.6113 6.80452 42.4807 7.07922 42.4807 7.41208C42.4807 7.72488 42.6276 7.97954 42.9214 8.17504C43.2215 8.36453 43.7241 8.53095 44.4291 8.67432C45.134 8.81167 45.728 8.96808 46.211 9.14453C47.7058 9.69295 48.4531 10.6424 48.4531 11.9939C48.4531 12.9593 48.0386 13.7434 47.2097 14.3439C46.3807 14.9374 45.3103 15.2342 43.9983 15.2342C43.1106 15.2342 42.3208 15.0778 41.6289 14.765C40.9436 14.4452 40.4051 14.011 40.0135 13.4626C39.6219 12.9072 39.426 12.3107 39.426 11.671H42.1087C42.1348 12.1733 42.3208 12.5583 42.6668 12.826C43.0127 13.0937 43.4762 13.227 44.0571 13.227C44.5988 13.227 45.0067 13.1258 45.2809 12.9243C45.5615 12.7147 45.7019 12.444 45.7019 12.1112ZM55.2306 15.2342C53.6766 15.2342 52.4104 14.758 51.4319 13.8055C50.4593 12.8521 49.9731 11.5828 49.9731 9.99672V9.72202C49.9731 8.65829 50.1786 7.70883 50.5897 6.87268C51.0007 6.03152 51.5812 5.38485 52.3322 4.9347C53.0891 4.47752 53.9513 4.24894 54.9168 4.24894C56.3665 4.24894 57.5055 4.70611 58.3336 5.61946C59.1698 6.53381 59.5868 7.82914 59.5868 9.50646V10.6624H52.8415C52.9327 11.3542 53.2074 11.9086 53.6636 12.3267C54.1278 12.7448 54.7113 12.9533 55.4161 12.9533C56.5069 12.9533 57.3581 12.5583 57.9717 11.7683L59.3623 13.3253C58.9382 13.9258 58.3637 14.3961 57.6388 14.7349C56.914 15.0678 56.1119 15.2342 55.2306 15.2342ZM54.9078 6.53982C54.3464 6.53982 53.8892 6.72931 53.5363 7.10829C53.1904 7.48626 52.9688 8.02866 52.8706 8.73347H56.8067V8.50789C56.7937 7.88127 56.6242 7.39904 56.2974 7.05917C55.9715 6.71328 55.5073 6.53982 54.9078 6.53982ZM72.075 12.1112C72.075 11.7653 71.9015 11.4946 71.5556 11.2991C71.2168 11.0966 70.6684 10.9171 69.9114 10.7597C67.3909 10.2313 66.1317 9.16058 66.1317 7.54843C66.1317 6.60901 66.5197 5.826 67.2967 5.19938C68.0797 4.56575 69.1013 4.24894 70.3616 4.24894C71.706 4.24894 72.7798 4.56575 73.5829 5.19938C74.3919 5.83201 74.797 6.65412 74.797 7.66572H71.9667C71.9667 7.26168 71.8364 6.92882 71.5757 6.66715C71.314 6.39946 70.906 6.26613 70.3515 6.26613C69.8753 6.26613 69.5064 6.37341 69.2447 6.58896C68.984 6.80452 68.8537 7.07922 68.8537 7.41208C68.8537 7.72488 69.0001 7.97954 69.2938 8.17504C69.5946 8.36453 70.0969 8.53095 70.8017 8.67432C71.5065 8.81167 72.101 8.96808 72.5843 9.14453C74.0781 9.69295 74.8261 10.6424 74.8261 11.9939C74.8261 12.9593 74.411 13.7434 73.5829 14.3439C72.7537 14.9374 71.683 15.2342 70.3706 15.2342C69.4833 15.2342 68.6933 15.0778 68.0015 14.765C67.3167 14.4452 66.7783 14.011 66.3863 13.4626C65.9943 12.9072 65.7988 12.3107 65.7988 11.671H68.4817C68.5078 12.1733 68.6933 12.5583 69.0392 12.826C69.3851 13.0937 69.8492 13.227 70.4297 13.227C70.9711 13.227 71.3792 13.1258 71.6539 12.9243C71.9346 12.7147 72.075 12.444 72.075 12.1112ZM81.6035 15.2342C80.0495 15.2342 78.7832 14.758 77.8047 13.8055C76.8322 12.8521 76.346 11.5828 76.346 9.99672V9.72202C76.346 8.65829 76.5515 7.70883 76.9625 6.87268C77.3736 6.03152 77.9541 5.38485 78.705 4.9347C79.462 4.47752 80.3242 4.24894 81.2897 4.24894C82.7394 4.24894 83.8783 4.70611 84.7065 5.61946C85.5426 6.53381 85.9597 7.82914 85.9597 9.50646V10.6624H79.2143C79.3056 11.3542 79.5793 11.9086 80.0365 12.3267C80.4997 12.7448 81.0842 12.9533 81.789 12.9533C82.8788 12.9533 83.731 12.5583 84.3446 11.7683L85.7351 13.3253C85.311 13.9258 84.7366 14.3961 84.0117 14.7349C83.2868 15.0678 82.4848 15.2342 81.6035 15.2342ZM81.2797 6.53982C80.7192 6.53982 80.262 6.72931 79.9091 7.10829C79.5633 7.48626 79.3417 8.02866 79.2434 8.73347H83.1796V8.50789C83.1665 7.88127 82.9971 7.39904 82.6702 7.05917C82.3444 6.71328 81.8802 6.53982 81.2797 6.53982ZM90.6327 15.0387H87.7934V0H90.6327V15.0387ZM97.9185 15.2342C96.3655 15.2342 95.0992 14.758 94.1197 13.8055C93.1472 12.8521 92.661 11.5828 92.661 9.99672V9.72202C92.661 8.65829 92.8665 7.70883 93.2775 6.87268C93.6896 6.03152 94.2701 5.38485 95.021 4.9347C95.778 4.47752 96.6392 4.24894 97.6057 4.24894C99.0544 4.24894 100.193 4.70611 101.022 5.61946C101.858 6.53381 102.276 7.82914 102.276 9.50646V10.6624H95.5293C95.6216 11.3542 95.8953 11.9086 96.3524 12.3267C96.8156 12.7448 97.4001 12.9533 98.105 12.9533C99.1948 12.9533 100.047 12.5583 100.661 11.7683L102.05 13.3253C101.626 13.9258 101.052 14.3961 100.328 14.7349C99.6028 15.0678 98.7998 15.2342 97.9185 15.2342ZM97.5956 6.53982C97.0342 6.53982 96.577 6.72931 96.2251 7.10829C95.8792 7.48626 95.6567 8.02866 95.5594 8.73347H99.4955V8.50789C99.4825 7.88127 99.3121 7.39904 98.9862 7.05917C98.6594 6.71328 98.1962 6.53982 97.5956 6.53982ZM108.367 12.9533C108.89 12.9533 109.314 12.81 109.641 12.5222C109.966 12.2355 110.137 11.8535 110.15 11.3773H112.803C112.797 12.0951 112.6 12.7538 112.215 13.3544C111.83 13.9489 111.302 14.4121 110.629 14.7449C109.963 15.0718 109.226 15.2342 108.416 15.2342C106.903 15.2342 105.708 14.755 104.833 13.7955C103.958 12.829 103.521 11.4976 103.521 9.80021V9.61474C103.521 7.98254 103.955 6.68018 104.823 5.70768C105.691 4.73518 106.883 4.24894 108.397 4.24894C109.722 4.24894 110.783 4.62791 111.579 5.38486C112.382 6.13579 112.79 7.13737 112.803 8.3906H110.15C110.137 7.84218 109.966 7.39904 109.641 7.05917C109.314 6.71328 108.884 6.53982 108.348 6.53982C107.689 6.53982 107.189 6.78145 106.85 7.2647C106.518 7.74092 106.35 8.51793 106.35 9.5947V9.88845C106.35 10.9793 106.518 11.7623 106.85 12.2385C107.183 12.7147 107.689 12.9533 108.367 12.9533ZM117.877 1.84074V4.44545H119.688V6.52078H117.877V11.8074C117.877 12.1994 117.952 12.4801 118.101 12.6496C118.252 12.819 118.539 12.9042 118.964 12.9042C119.276 12.9042 119.554 12.8811 119.796 12.836V14.9795C119.24 15.15 118.67 15.2342 118.082 15.2342C116.098 15.2342 115.086 14.2326 115.047 12.2285V6.52078H113.5V4.44545H115.047V1.84074H117.877ZM130.354 11.0344L132.312 4.44545H135.348L131.089 16.6839L130.853 17.2414C130.221 18.6249 129.176 19.3177 127.72 19.3177C127.309 19.3177 126.891 19.2556 126.467 19.1312V16.9867L126.898 16.9967C127.433 16.9967 127.831 16.9155 128.092 16.7521C128.36 16.5887 128.569 16.318 128.719 15.939L129.052 15.0678L125.341 4.44545H128.386L130.354 11.0344ZM135.937 9.64382C135.937 8.59312 136.139 7.6567 136.544 6.83358C136.949 6.01146 137.529 5.37483 138.286 4.92468C139.05 4.47452 139.935 4.24894 140.94 4.24894C142.37 4.24894 143.535 4.68606 144.435 5.56131C145.343 6.43556 145.849 7.62362 145.953 9.12549L145.972 9.84935C145.972 11.4745 145.519 12.7799 144.612 13.7654C143.704 14.7449 142.487 15.2342 140.959 15.2342C139.432 15.2342 138.211 14.7449 137.298 13.7654C136.39 12.7869 135.937 11.4555 135.937 9.77115V9.64382ZM138.767 9.84935C138.767 10.8549 138.956 11.6249 139.334 12.1603C139.713 12.6887 140.254 12.9533 140.959 12.9533C141.645 12.9533 142.18 12.6927 142.565 12.1703C142.95 11.641 143.143 10.7988 143.143 9.64382C143.143 8.65828 142.95 7.89431 142.565 7.35292C142.18 6.81153 141.638 6.53982 140.94 6.53982C140.248 6.53982 139.713 6.81153 139.334 7.35292C138.956 7.8883 138.767 8.72045 138.767 9.84935ZM154.13 13.9619C153.431 14.8101 152.466 15.2342 151.232 15.2342C150.097 15.2342 149.229 14.9084 148.628 14.2557C148.033 13.603 147.731 12.6465 147.718 11.3863V4.44545H150.547V11.289C150.547 12.3919 151.049 12.9433 152.055 12.9433C153.014 12.9433 153.673 12.6105 154.032 11.9447V4.44545H156.871V15.0387H154.208L154.13 13.9619ZM165.029 7.09827C164.644 7.04613 164.305 7.02006 164.012 7.02006C162.941 7.02006 162.239 7.382 161.906 8.10686V15.0387H159.077V4.44545H161.75L161.828 5.70768C162.395 4.73518 163.182 4.24894 164.187 4.24894C164.501 4.24894 164.795 4.29205 165.068 4.37627L165.029 7.09827ZM174.658 12.6786H180.895V15.0387H171.72V0.783021H174.658V12.6786ZM188.612 15.0387C188.482 14.784 188.386 14.4672 188.328 14.0893C187.642 14.8522 186.752 15.2342 185.655 15.2342C184.618 15.2342 183.755 14.9344 183.071 14.3339C182.392 13.7333 182.052 12.9764 182.052 12.062C182.052 10.9392 182.466 10.0779 183.295 9.47739C184.131 8.87685 185.335 8.57306 186.908 8.56704H188.211V7.95948C188.211 7.47022 188.084 7.07922 187.829 6.78547C187.58 6.49171 187.185 6.34433 186.644 6.34433C186.168 6.34433 185.792 6.45862 185.518 6.68721C185.25 6.9158 185.117 7.2286 185.117 7.62662H182.287C182.287 7.01304 182.476 6.44559 182.855 5.92325C183.233 5.4009 183.768 4.99285 184.46 4.7001C185.152 4.39932 185.929 4.24894 186.791 4.24894C188.097 4.24894 189.131 4.57879 189.894 5.23849C190.665 5.89117 191.05 6.81153 191.05 7.99959V12.5914C191.056 13.596 191.197 14.3569 191.471 14.8723V15.0387H188.612ZM186.272 13.0706C186.69 13.0706 187.075 12.9794 187.427 12.7969C187.78 12.6075 188.04 12.3558 188.211 12.043V10.2213H187.153C185.736 10.2213 184.983 10.7116 184.891 11.6901L184.881 11.8565C184.881 12.2094 185.006 12.4992 185.253 12.7278C185.502 12.9563 185.841 13.0706 186.272 13.0706ZM195.899 4.44545L195.987 5.66859C196.744 4.72216 197.758 4.24894 199.032 4.24894C200.154 4.24894 200.99 4.57879 201.538 5.23849C202.086 5.89718 202.366 6.88271 202.379 8.19508V15.0387H199.55V8.26327C199.55 7.66272 199.42 7.2286 199.159 6.96091C198.897 6.6872 198.463 6.54986 197.857 6.54986C197.06 6.54986 196.463 6.88973 196.065 7.56847V15.0387H193.235V4.44545H195.899ZM204.193 9.66388C204.193 8.03869 204.578 6.72932 205.348 5.73777C206.125 4.74522 207.17 4.24894 208.481 4.24894C209.643 4.24894 210.547 4.64695 211.194 5.444L211.311 4.44545H213.876V14.6858C213.876 15.6132 213.664 16.4193 213.24 17.105C212.822 17.7898 212.232 18.3121 211.468 18.671C210.704 19.03 209.809 19.2094 208.785 19.2094C208.008 19.2094 207.251 19.053 206.514 18.7392C205.776 18.4324 205.218 18.0344 204.84 17.5452L206.093 15.8217C206.798 16.6118 207.653 17.0068 208.657 17.0068C209.408 17.0068 209.993 16.8042 210.41 16.3992C210.828 16.0012 211.037 15.4337 211.037 14.6958V14.1284C210.384 14.8652 209.526 15.2342 208.462 15.2342C207.189 15.2342 206.158 14.7389 205.368 13.7464C204.585 12.7478 204.193 11.4254 204.193 9.78117V9.66388ZM207.022 9.86939C207.022 10.8289 207.215 11.5828 207.601 12.1312C207.986 12.6726 208.514 12.9433 209.187 12.9433C210.048 12.9433 210.665 12.6205 211.037 11.9738V7.51935C210.659 6.87269 210.048 6.54986 209.206 6.54986C208.527 6.54986 207.992 6.82758 207.601 7.382C207.215 7.93743 207.022 8.76555 207.022 9.86939ZM222.475 13.9619C221.776 14.8101 220.81 15.2342 219.577 15.2342C218.441 15.2342 217.572 14.9084 216.972 14.2557C216.378 13.603 216.075 12.6465 216.062 11.3863V4.44545H218.891V11.289C218.891 12.3919 219.394 12.9433 220.399 12.9433C221.358 12.9433 222.018 12.6105 222.377 11.9447V4.44545H225.216V15.0387H222.553L222.475 13.9619ZM233.56 15.0387C233.429 14.784 233.335 14.4672 233.276 14.0893C232.59 14.8522 231.7 15.2342 230.603 15.2342C229.565 15.2342 228.704 14.9344 228.018 14.3339C227.34 13.7333 227 12.9764 227 12.062C227 10.9392 227.415 10.0779 228.244 9.47739C229.079 8.87685 230.283 8.57306 231.856 8.56704H233.159V7.95948C233.159 7.47022 233.031 7.07922 232.777 6.78547C232.529 6.49171 232.134 6.34433 231.591 6.34433C231.115 6.34433 230.74 6.45862 230.466 6.68721C230.198 6.9158 230.065 7.2286 230.065 7.62662H227.235C227.235 7.01304 227.424 6.44559 227.803 5.92325C228.182 5.4009 228.717 4.99285 229.409 4.7001C230.101 4.39932 230.878 4.24894 231.739 4.24894C233.044 4.24894 234.079 4.57879 234.843 5.23849C235.613 5.89117 235.998 6.81153 235.998 7.99959V12.5914C236.004 13.596 236.144 14.3569 236.419 14.8723V15.0387H233.56ZM231.22 13.0706C231.638 13.0706 232.023 12.9794 232.375 12.7969C232.727 12.6075 232.989 12.3558 233.159 12.043V10.2213H232.101C230.684 10.2213 229.93 10.7116 229.839 11.6901L229.83 11.8565C229.83 12.2094 229.953 12.4992 230.202 12.7278C230.45 12.9563 230.789 13.0706 231.22 13.0706ZM237.831 9.66388C237.831 8.03869 238.216 6.72932 238.986 5.73777C239.763 4.74522 240.807 4.24894 242.119 4.24894C243.281 4.24894 244.185 4.64695 244.832 5.444L244.949 4.44545H247.513V14.6858C247.513 15.6132 247.302 16.4193 246.878 17.105C246.46 17.7898 245.869 18.3121 245.105 18.671C244.341 19.03 243.447 19.2094 242.422 19.2094C241.645 19.2094 240.888 19.053 240.152 18.7392C239.414 18.4324 238.855 18.0344 238.477 17.5452L239.73 15.8217C240.435 16.6118 241.29 17.0068 242.295 17.0068C243.046 17.0068 243.63 16.8042 244.048 16.3992C244.466 16.0012 244.674 15.4337 244.674 14.6958V14.1284C244.021 14.8652 243.163 15.2342 242.1 15.2342C240.826 15.2342 239.796 14.7389 239.006 13.7464C238.223 12.7478 237.831 11.4254 237.831 9.78117V9.66388ZM240.66 9.86939C240.66 10.8289 240.852 11.5828 241.238 12.1312C241.623 12.6726 242.152 12.9433 242.824 12.9433C243.686 12.9433 244.302 12.6205 244.674 11.9738V7.51935C244.296 6.87269 243.686 6.54986 242.843 6.54986C242.165 6.54986 241.629 6.82758 241.238 7.382C240.852 7.93743 240.66 8.76555 240.66 9.86939ZM254.644 15.2342C253.09 15.2342 251.824 14.758 250.845 13.8055C249.873 12.8521 249.386 11.5828 249.386 9.99672V9.72202C249.386 8.65829 249.592 7.70883 250.003 6.87268C250.414 6.03152 250.994 5.38485 251.745 4.9347C252.502 4.47752 253.365 4.24894 254.33 4.24894C255.78 4.24894 256.919 4.70611 257.747 5.61946C258.583 6.53381 259 7.82914 259 9.50646V10.6624H252.255C252.346 11.3542 252.621 11.9086 253.077 12.3267C253.54 12.7448 254.124 12.9533 254.829 12.9533C255.92 12.9533 256.771 12.5583 257.385 11.7683L258.775 13.3253C258.351 13.9258 257.777 14.3961 257.052 14.7349C256.327 15.0678 255.525 15.2342 254.644 15.2342ZM254.32 6.53982C253.76 6.53982 253.302 6.72931 252.949 7.10829C252.604 7.48626 252.382 8.02866 252.284 8.73347H256.22V8.50789C256.207 7.88127 256.037 7.39904 255.711 7.05917C255.385 6.71328 254.921 6.53982 254.32 6.53982Z" fill="black"/>
</svg>
