<svg width="76" height="14" viewBox="0 0 76 14" fill="none" xmlns="http://www.w3.org/2000/svg">
<path d="M0 0.380412H2.725V11.0771H9.18366V13.4217H0V0.380412ZM13.5727 13.4217H10.8648V0.380412H13.5727V13.4217ZM23.7559 0.380412H26.5866L22.1362 13.4217H19.5622L15.1561 0.380412H18.0663L20.898 10.2808L23.7559 0.380412ZM37.85 2.68966H30.9484V5.45886H37.2833V7.72382H30.9484V11.0771H38.1681V13.4217H28.2858V0.380412H37.85V2.68966ZM43.8567 8.4936H47.1665L45.5378 3.362L43.8567 8.4936ZM44.0248 0.380412H47.1041L51.7226 13.4217H48.7671L47.9266 10.7408H43.1228L42.2199 13.4217H39.371L44.0248 0.380412ZM55.3587 9.39606C55.4412 9.9918 55.6033 10.4371 55.8459 10.732C56.2878 11.2687 57.0458 11.5371 58.1189 11.5371C58.7621 11.5371 59.2846 11.4663 59.6852 11.3248C60.4463 11.0535 60.8268 10.5492 60.8268 9.81191C60.8268 9.38127 60.6375 9.04806 60.26 8.8121C59.8825 8.58209 59.2906 8.37854 58.4823 8.20167L57.1022 7.89193C55.7452 7.5852 54.807 7.252 54.2886 6.89223C53.4098 6.29055 52.9699 5.34974 52.9699 4.06988C52.9699 2.90197 53.3947 1.93166 54.2443 1.15905C55.0939 0.38635 56.3412 0 57.987 0C59.3611 0 60.5318 0.365714 61.4992 1.09704C62.4726 1.82254 62.983 2.87841 63.0293 4.26447H60.411C60.3637 3.47998 60.0215 2.92261 59.3843 2.59233C58.9594 2.37408 58.4319 2.26496 57.8008 2.26496C57.0991 2.26496 56.5384 2.40649 56.1197 2.68966C55.7009 2.97273 55.4915 3.36795 55.4915 3.8752C55.4915 4.34118 55.6979 4.68918 56.1106 4.9192C56.3764 5.07261 56.9431 5.25249 57.8098 5.45886L60.0567 5.99862C61.0422 6.23458 61.7851 6.55006 62.2864 6.94527C63.0656 7.55873 63.4541 8.44639 63.4541 9.60836C63.4541 10.7998 62.9971 11.7908 62.0831 12.5811C61.1751 13.3656 59.8886 13.7579 58.2256 13.7579C56.5264 13.7579 55.1905 13.3715 54.2171 12.5988C53.2447 11.8203 52.7575 10.7526 52.7575 9.39606H55.3587ZM72.9126 0.380412H76L71.6382 8.52018V13.4217H68.9132V8.52018L64.4014 0.380412H67.6126L70.3205 6.06053L72.9126 0.380412Z" fill="white"/>
</svg>
