<svg width="45" height="12" viewBox="0 0 45 12" fill="none" xmlns="http://www.w3.org/2000/svg">
<path d="M7.9989 0H10.5507V11.434H7.9989L2.55179 4.26935V11.434H0V0H2.38822L7.9989 7.36094V0ZM22.1054 0V2.27372H16.4129V4.62921H21.5329V6.80477H16.4129V9.17665H22.2853V11.434H13.8611V0H22.1054ZM31.4834 0H34.5587L30.9927 5.51254L34.8531 11.434H31.7452L29.3079 7.67176L26.8869 11.434H23.8117L27.6557 5.57797L24.0734 0H27.1323L29.3079 3.38602L31.4834 0ZM41.7612 2.20829V11.434H39.2094V2.20829H35.9706V0H45V2.20829H41.7612Z" fill="white"/>
</svg>
