<svg width="57" height="16" viewBox="0 0 57 16" fill="none" xmlns="http://www.w3.org/2000/svg">
<path d="M7.99618 10.9524V11.9862H0V0.67846H7.75387V1.71233H1.19539V5.73465H7.0431V6.75234H1.19539V10.9524H7.99618ZM14.893 3.42462C15.9591 3.42462 16.8046 3.7366 17.4291 4.36156C18.0646 4.9754 18.3821 5.87497 18.3821 7.05925V11.9862H17.2353V7.17233C17.2353 6.28891 17.0146 5.61651 16.573 5.15309C16.1315 4.68968 15.5015 4.45849 14.683 4.45849C13.7677 4.45849 13.0407 4.73308 12.5022 5.28232C11.9746 5.82044 11.7107 6.56961 11.7107 7.52774V11.9862H10.5637V3.48926H11.6622V5.05616C11.9746 4.53924 12.4053 4.14045 12.9545 3.86078C13.5145 3.57001 14.1607 3.42462 14.893 3.42462ZM29.395 3.48926V10.9524C29.395 12.3951 29.0396 13.4613 28.3289 14.1508C27.6282 14.8505 26.5681 15.2008 25.1466 15.2008C24.3601 15.2008 23.6119 15.0827 22.9012 14.8454C22.2005 14.6193 21.6301 14.3012 21.1889 13.8924L21.7704 13.02C22.1793 13.3865 22.675 13.6713 23.2566 13.8762C23.8482 14.0812 24.4681 14.1831 25.1142 14.1831C26.1905 14.1831 26.982 13.9297 27.4889 13.4239C27.9947 12.9282 28.2481 12.1528 28.2481 11.0977V10.0154C27.8927 10.5535 27.4243 10.9635 26.8427 11.2431C26.2713 11.5228 25.6362 11.6631 24.9366 11.6631C24.139 11.6631 23.412 11.4905 22.7558 11.1462C22.1096 10.7908 21.5978 10.3011 21.2212 9.67619C20.8547 9.04114 20.6719 8.32432 20.6719 7.52774C20.6719 6.73115 20.8547 6.02035 21.2212 5.39539C21.5978 4.77044 22.1096 4.28585 22.7558 3.94157C23.4019 3.59729 24.1289 3.42462 24.9366 3.42462C25.6574 3.42462 26.3096 3.57001 26.8912 3.86078C27.4727 4.15155 27.9412 4.57157 28.2966 5.1208V3.48926H29.395ZM25.0496 10.6454C25.6635 10.6454 26.2178 10.5162 26.7135 10.2577C27.2082 9.98815 27.5908 9.61661 27.8604 9.1431C28.1401 8.66959 28.2804 8.13048 28.2804 7.52774C28.2804 6.92499 28.1401 6.3919 27.8604 5.92849C27.5908 5.45498 27.2082 5.08847 26.7135 4.83001C26.2289 4.56044 25.6736 4.42617 25.0496 4.42617C24.4358 4.42617 23.8805 4.5554 23.3858 4.81386C22.9012 5.07233 22.5185 5.43883 22.2389 5.91234C21.9693 6.38585 21.835 6.92499 21.835 7.52774C21.835 8.13048 21.9693 8.66959 22.2389 9.1431C22.5185 9.61661 22.9012 9.98815 23.3858 10.2577C23.8805 10.5162 24.4358 10.6454 25.0496 10.6454ZM32.6016 0H33.7485V11.9862H32.6016V0ZM36.9399 3.48926H38.0868V11.9862H36.9399V3.48926ZM37.5214 1.63154C37.2842 1.63154 37.0853 1.55078 36.9238 1.38924C36.7622 1.2277 36.6814 1.03387 36.6814 0.807713C36.6814 0.592664 36.7622 0.403868 36.9238 0.242329C37.0853 0.0807904 37.2842 0 37.5214 0C37.7587 0 37.9576 0.0807904 38.1191 0.242329C38.2807 0.392762 38.3614 0.576488 38.3614 0.791537C38.3614 1.0288 38.2807 1.2277 38.1191 1.38924C37.9576 1.55078 37.7587 1.63154 37.5214 1.63154ZM43.5559 12.0669C42.8664 12.0669 42.2041 11.97 41.569 11.7762C40.9441 11.5712 40.4544 11.3188 40.099 11.017L40.6159 10.1124C40.9713 10.392 41.4186 10.6242 41.9567 10.807C42.4948 10.9796 43.0552 11.0654 43.6367 11.0654C44.4121 11.0654 44.9825 10.9473 45.349 10.71C45.7256 10.4627 45.9144 10.1174 45.9144 9.67619C45.9144 9.36422 45.8124 9.12191 45.6075 8.94927C45.4025 8.76653 45.1441 8.63124 44.8321 8.54543C44.5201 8.4485 44.1052 8.35662 43.5882 8.27081C42.8987 8.14158 42.3444 8.01234 41.9244 7.88311C41.5044 7.74277 41.144 7.51155 40.8421 7.18847C40.5513 6.8654 40.4059 6.41816 40.4059 5.84773C40.4059 5.13696 40.7017 4.55539 41.2944 4.10308C41.887 3.65077 42.7109 3.42462 43.7659 3.42462C44.3152 3.42462 44.8644 3.50034 45.4136 3.65078C45.9629 3.79111 46.4152 3.9789 46.7706 4.21616L46.2698 5.13695C45.5701 4.65233 44.7352 4.41002 43.7659 4.41002C43.034 4.41002 42.4787 4.53926 42.1021 4.79772C41.7356 5.05618 41.5529 5.39541 41.5529 5.81541C41.5529 6.13849 41.6548 6.39695 41.8598 6.5908C42.0748 6.78465 42.3393 6.93004 42.6513 7.02696C42.9633 7.11278 43.3944 7.20463 43.9436 7.30155C44.6221 7.43078 45.1663 7.56002 45.5752 7.68925C45.9841 7.81848 46.3344 8.03959 46.6252 8.35156C46.9159 8.66353 47.0613 9.09464 47.0613 9.64387C47.0613 10.387 46.7494 10.9796 46.1244 11.4208C45.5106 11.8519 44.6544 12.0669 43.5559 12.0669ZM53.5108 3.42462C54.5769 3.42462 55.422 3.7366 56.0469 4.36156C56.682 4.9754 57 5.87497 57 7.05925V11.9862H55.8531V7.17233C55.8531 6.28891 55.632 5.61651 55.1908 5.15309C54.7496 4.68968 54.1196 4.45849 53.3008 4.45849C52.385 4.45849 51.6581 4.73308 51.12 5.28232C50.592 5.82044 50.3285 6.56961 50.3285 7.52774V11.9862H49.1815V0H50.3285V4.97541C50.6404 4.47968 51.0715 4.09806 51.6208 3.82849C52.17 3.55893 52.8 3.42462 53.5108 3.42462Z" fill="#2F3037"/>
</svg>
