<svg width="185" height="30" viewBox="0 0 185 30" fill="none" xmlns="http://www.w3.org/2000/svg">
<path d="M4.10903 5.57267L6.72016 0.549825H8.21806L4.76873 6.82309V10.5543H3.44944V6.82309L0 0.549825H1.51177L4.10903 5.57267ZM8.59118 6.76781C8.59118 6.04007 8.73322 5.38469 9.01718 4.8027C9.30576 4.22171 9.70431 3.77241 10.2128 3.45578C10.7259 3.14015 11.3099 2.98233 11.965 2.98233C12.9772 2.98233 13.7955 3.33214 14.4177 4.03375C15.0459 4.73435 15.3595 5.66616 15.3595 6.83014V6.91959C15.3595 7.64331 15.2198 8.29367 14.9403 8.87064C14.6649 9.44358 14.2689 9.88986 13.7512 10.2105C13.2386 10.5312 12.6476 10.692 11.9791 10.692C10.9709 10.692 10.1532 10.3412 9.52569 9.64059C8.90269 8.93998 8.59118 8.0122 8.59118 6.85726V6.76781ZM9.86926 6.91959C9.86926 7.74383 10.0593 8.40624 10.4396 8.90481C10.8244 9.40438 11.3374 9.65366 11.9791 9.65366C12.6244 9.65366 13.1381 9.40236 13.518 8.89877C13.898 8.39015 14.088 7.6795 14.088 6.76781C14.088 5.95262 13.894 5.29322 13.504 4.78963C13.119 4.28102 12.6063 4.02671 11.965 4.02671C11.3374 4.02671 10.8312 4.276 10.4464 4.77557C10.0617 5.27514 9.86926 5.98981 9.86926 6.91959ZM21.6147 9.81952C21.1191 10.4005 20.3934 10.692 19.4365 10.692C18.6434 10.692 18.0393 10.4628 17.6221 10.0045C17.21 9.54208 17.0009 8.85955 16.9969 7.95691V3.12005H18.2685V7.92274C18.2685 9.04953 18.7258 9.61243 19.6425 9.61243C20.6135 9.61243 21.2588 9.25058 21.5795 8.52686V3.12005H22.851V10.5543H21.6418L21.6147 9.81952ZM31.403 9.65366C31.8563 9.65366 32.2524 9.51695 32.5921 9.24153C32.9309 8.96712 33.1188 8.62336 33.155 8.21124H34.3572C34.3351 8.63743 34.1883 9.04251 33.9179 9.42749C33.6476 9.81247 33.2857 10.1191 32.8324 10.3482C32.3831 10.5774 31.9066 10.692 31.403 10.692C30.3908 10.692 29.5847 10.3552 28.9846 9.68178C28.3885 9.00329 28.091 8.07855 28.091 6.90551V6.69241C28.091 5.96869 28.2237 5.32539 28.49 4.76149C28.7554 4.19859 29.1354 3.76135 29.6299 3.44975C30.1295 3.13815 30.7185 2.98233 31.396 2.98233C32.2303 2.98233 32.9218 3.23163 33.4717 3.7312C34.0255 4.23077 34.321 4.87909 34.3572 5.67519H33.155C33.1188 5.19471 32.9349 4.80068 32.6052 4.49411C32.2805 4.1825 31.8775 4.02671 31.396 4.02671C30.7507 4.02671 30.2491 4.25991 29.8912 4.72732C29.5384 5.1897 29.3625 5.86114 29.3625 6.74066V6.98091C29.3625 7.83832 29.5384 8.49771 29.8912 8.96009C30.2441 9.42246 30.7476 9.65366 31.403 9.65366ZM40.4475 10.5543C40.3741 10.4075 40.3149 10.1462 40.2686 9.77126C39.6786 10.3844 38.9729 10.692 38.1527 10.692C37.42 10.692 36.8179 10.4859 36.3454 10.0728C35.878 9.65666 35.6448 9.12996 35.6448 8.49269C35.6448 7.7187 35.9383 7.1186 36.5244 6.69241C37.1154 6.2622 37.9447 6.04711 39.0111 6.04711H40.2485V5.4631C40.2485 5.01881 40.1158 4.666 39.8495 4.40466C39.5841 4.13929 39.1921 4.0056 38.6744 4.0056C38.2211 4.0056 37.8411 4.12019 37.5346 4.34937C37.227 4.57854 37.0742 4.85598 37.0742 5.18065H35.7956C35.7956 4.80974 35.9263 4.4529 36.1876 4.10913C36.453 3.76134 36.8108 3.48593 37.2591 3.2849C37.7125 3.08286 38.21 2.98233 38.7508 2.98233C39.6072 2.98233 40.2787 3.19744 40.7642 3.62765C41.2497 4.05384 41.5009 4.64288 41.52 5.39374V8.81634C41.52 9.49885 41.6065 10.0416 41.7804 10.4447V10.5543H40.4475ZM38.3387 9.58531C38.7367 9.58531 39.1147 9.48278 39.4715 9.27672C39.8294 9.06965 40.0877 8.80226 40.2485 8.47256V6.94674H39.2524C37.6944 6.94674 36.9154 7.40307 36.9154 8.31376C36.9154 8.71281 37.0491 9.0244 37.3144 9.24856C37.5798 9.47271 37.9215 9.58531 38.3387 9.58531ZM44.7859 3.12005L44.8271 4.05385C45.395 3.33918 46.1368 2.98233 47.0535 2.98233C48.6246 2.98233 49.4167 3.8689 49.4307 5.64101V10.5543H48.1592V5.63397C48.1552 5.09822 48.0315 4.70219 47.7883 4.44587C47.5501 4.18955 47.1772 4.06088 46.6685 4.06088C46.2564 4.06088 45.8946 4.17045 45.5829 4.39058C45.2713 4.61071 45.0281 4.8992 44.8542 5.25604V10.5543H43.5827V3.12005H44.7859ZM57.9616 9.65366C58.415 9.65366 58.812 9.51695 59.1507 9.24153C59.4895 8.96712 59.6774 8.62336 59.7136 8.21124H60.9168C60.8937 8.63743 60.7469 9.04251 60.4766 9.42749C60.2062 9.81247 59.8443 10.1191 59.391 10.3482C58.9417 10.5774 58.4662 10.692 57.9616 10.692C56.9494 10.692 56.1433 10.3552 55.5432 9.68178C54.9481 9.00329 54.6496 8.07855 54.6496 6.90551V6.69241C54.6496 5.96869 54.7823 5.32539 55.0486 4.76149C55.314 4.19859 55.694 3.76135 56.1895 3.44975C56.6881 3.13815 57.2771 2.98233 57.9546 2.98233C58.7889 2.98233 59.4804 3.23163 60.0303 3.7312C60.5841 4.23077 60.8796 4.87909 60.9168 5.67519H59.7136C59.6774 5.19471 59.4945 4.80068 59.1638 4.49411C58.8391 4.1825 58.4361 4.02671 57.9546 4.02671C57.3093 4.02671 56.8077 4.25991 56.4498 4.72732C56.097 5.1897 55.9211 5.86114 55.9211 6.74066V6.98091C55.9211 7.83832 56.097 8.49771 56.4498 8.96009C56.8026 9.42246 57.3073 9.65366 57.9616 9.65366ZM63.6881 4.01967C64.251 3.32811 64.9837 2.98233 65.8864 2.98233C67.4574 2.98233 68.2505 3.8689 68.2636 5.64101V10.5543H66.9931V5.63397C66.988 5.09822 66.8644 4.70219 66.6222 4.44587C66.3839 4.18955 66.01 4.06088 65.5014 4.06088C65.0893 4.06088 64.7274 4.17045 64.4158 4.39058C64.1042 4.61071 63.862 4.8992 63.6881 5.25604V10.5543H62.4165V0H63.6881V4.01967ZM74.8284 10.5543C74.755 10.4075 74.6947 10.1462 74.6494 9.77126C74.0584 10.3844 73.3528 10.692 72.5325 10.692C71.7998 10.692 71.1977 10.4859 70.7263 10.0728C70.2589 9.65666 70.0247 9.12996 70.0247 8.49269C70.0247 7.7187 70.3182 7.1186 70.9042 6.69241C71.4952 6.2622 72.3245 6.04711 73.392 6.04711H74.6283V5.4631C74.6283 5.01881 74.4957 4.666 74.2303 4.40466C73.9649 4.13929 73.5729 4.0056 73.0552 4.0056C72.6019 4.0056 72.222 4.12019 71.9144 4.34937C71.6078 4.57854 71.454 4.85598 71.454 5.18065H70.1764C70.1764 4.80974 70.3071 4.4529 70.5675 4.10913C70.8338 3.76134 71.1907 3.48593 71.64 3.2849C72.0933 3.08286 72.5898 2.98233 73.1306 2.98233C73.987 2.98233 74.6585 3.19744 75.144 3.62765C75.6295 4.05384 75.8818 4.64288 75.8999 5.39374V8.81634C75.8999 9.49885 75.9873 10.0416 76.1612 10.4447V10.5543H74.8284ZM72.7185 9.58531C73.1176 9.58531 73.4945 9.48278 73.8523 9.27672C74.2092 9.06965 74.4685 8.80226 74.6283 8.47256V6.94674H73.6322C72.0752 6.94674 71.2962 7.40307 71.2962 8.31376C71.2962 8.71281 71.4289 9.0244 71.6942 9.24856C71.9606 9.47271 72.3014 9.58531 72.7185 9.58531ZM79.1657 3.12005L79.2069 4.05385C79.7748 3.33918 80.5176 2.98233 81.4333 2.98233C83.0044 2.98233 83.7975 3.8689 83.8106 5.64101V10.5543H82.54V5.63397C82.535 5.09822 82.4114 4.70219 82.1681 4.44587C81.9299 4.18955 81.557 4.06088 81.0483 4.06088C80.6362 4.06088 80.2744 4.17045 79.9628 4.39058C79.6512 4.61071 79.4089 4.8992 79.235 5.25604V10.5543H77.9635V3.12005H79.1657ZM85.4962 6.77484C85.4962 5.61587 85.7646 4.69515 86.3004 4.01264C86.8361 3.32611 87.5458 2.98233 88.4303 2.98233C89.337 2.98233 90.0446 3.30298 90.5532 3.94428L90.6156 3.12005H91.7765V10.3754C91.7765 11.3373 91.4901 12.0962 90.9181 12.6501C90.3502 13.2039 89.5843 13.4813 88.6223 13.4813C88.0866 13.4813 87.5619 13.3668 87.0492 13.1376C86.5366 12.9084 86.1446 12.5948 85.8742 12.1967L86.5336 11.4338C87.0794 12.1073 87.7458 12.444 88.5339 12.444C89.152 12.444 89.6325 12.2701 89.9763 11.9213C90.3241 11.5735 90.499 11.083 90.499 10.4508V9.81246C89.9903 10.3985 89.2958 10.692 88.4162 10.692C87.5458 10.692 86.8411 10.3412 86.3004 9.64059C85.7646 8.93998 85.4962 7.98405 85.4962 6.77484ZM86.7748 6.91959C86.7748 7.7579 86.9457 8.41729 87.2894 8.89877C87.6332 9.37421 88.1147 9.61243 88.7329 9.61243C89.534 9.61243 90.123 9.24856 90.499 8.52081V5.12637C90.109 4.41572 89.525 4.06088 88.7459 4.06088C88.1278 4.06088 87.6443 4.30112 87.2965 4.78259C86.9487 5.26307 86.7748 5.97574 86.7748 6.91959ZM96.8567 10.692C95.8485 10.692 95.0293 10.3623 94.397 9.70191C93.7648 9.0385 93.4481 8.15192 93.4481 7.04321V6.80901C93.4481 6.07222 93.5878 5.41485 93.8673 4.83687C94.1517 4.25589 94.5458 3.80256 95.0494 3.47688C95.558 3.14719 96.1078 2.98233 96.6988 2.98233C97.6648 2.98233 98.4167 3.30099 98.9524 3.93726C99.4882 4.57353 99.7566 5.48521 99.7566 6.67232V7.20104H94.7197C94.7378 7.93381 94.9509 8.52685 95.359 8.98119C95.7711 9.4295 96.2928 9.65366 96.925 9.65366C97.3743 9.65366 97.7543 9.56217 98.0659 9.37923C98.3775 9.19629 98.6499 8.95304 98.8841 8.65048L99.6601 9.25561C99.0369 10.2125 98.1021 10.692 96.8567 10.692ZM96.6988 4.02671C96.1852 4.02671 95.755 4.21467 95.4072 4.5896C95.0584 4.96151 94.8433 5.4832 94.7609 6.15667H98.485V6.06018C98.4488 5.41486 98.274 4.91528 97.9624 4.56247C97.6518 4.20563 97.2296 4.02671 96.6988 4.02671ZM106.591 1.31878V3.12005H107.979V4.10209H106.591V8.71281C106.591 9.01034 106.652 9.23551 106.776 9.38629C106.899 9.53304 107.11 9.60642 107.408 9.60642C107.555 9.60642 107.756 9.57827 108.013 9.52399V10.5543C107.678 10.6458 107.353 10.692 107.037 10.692C106.469 10.692 106.041 10.5201 105.752 10.1763C105.464 9.83256 105.319 9.34506 105.319 8.71281V4.10209H103.965V3.12005H105.319V1.31878H106.591ZM110.811 4.01967C111.374 3.32811 112.108 2.98233 113.01 2.98233C114.582 2.98233 115.374 3.8689 115.388 5.64101V10.5543H114.116V5.63397C114.111 5.09822 113.988 4.70219 113.746 4.44587C113.507 4.18955 113.133 4.06088 112.626 4.06088C112.213 4.06088 111.851 4.17045 111.54 4.39058C111.229 4.61071 110.985 4.8992 110.811 5.25604V10.5543H109.54V0H110.811V4.01967ZM120.447 10.692C119.439 10.692 118.62 10.3623 117.987 9.70191C117.355 9.0385 117.038 8.15192 117.038 7.04321V6.80901C117.038 6.07222 117.178 5.41485 117.458 4.83687C117.742 4.25589 118.136 3.80256 118.64 3.47688C119.148 3.14719 119.698 2.98233 120.289 2.98233C121.255 2.98233 122.007 3.30099 122.543 3.93726C123.079 4.57353 123.347 5.48521 123.347 6.67232V7.20104H118.31C118.328 7.93381 118.541 8.52685 118.949 8.98119C119.361 9.4295 119.883 9.65366 120.515 9.65366C120.965 9.65366 121.345 9.56217 121.656 9.37923C121.968 9.19629 122.24 8.95304 122.474 8.65048L123.25 9.25561C122.627 10.2125 121.693 10.692 120.447 10.692ZM120.289 4.02671C119.776 4.02671 119.345 4.21467 118.998 4.5896C118.649 4.96151 118.434 5.4832 118.351 6.15667H122.075V6.06018C122.039 5.41486 121.864 4.91528 121.554 4.56247C121.242 4.20563 120.82 4.02671 120.289 4.02671ZM129.837 10.5543H128.566V0H129.837V10.5543ZM136.539 10.5543C136.465 10.4075 136.406 10.1462 136.36 9.77126C135.769 10.3844 135.064 10.692 134.244 10.692C133.511 10.692 132.908 10.4859 132.437 10.0728C131.969 9.65666 131.736 9.12996 131.736 8.49269C131.736 7.7187 132.029 7.1186 132.616 6.69241C133.207 6.2622 134.035 6.04711 135.102 6.04711H136.34V5.4631C136.34 5.01881 136.207 4.666 135.941 4.40466C135.675 4.13929 135.283 4.0056 134.766 4.0056C134.312 4.0056 133.932 4.12019 133.626 4.34937C133.318 4.57854 133.165 4.85598 133.165 5.18065H131.887C131.887 4.80974 132.018 4.4529 132.279 4.10913C132.544 3.76134 132.901 3.48593 133.35 3.2849C133.804 3.08286 134.301 2.98233 134.841 2.98233C135.698 2.98233 136.369 3.19744 136.854 3.62765C137.34 4.05384 137.592 4.64288 137.61 5.39374V8.81634C137.61 9.49885 137.698 10.0416 137.872 10.4447V10.5543H136.539ZM134.429 9.58531C134.828 9.58531 135.206 9.48278 135.563 9.27672C135.921 9.06965 136.179 8.80226 136.34 8.47256V6.94674H135.344C133.786 6.94674 133.007 7.40307 133.007 8.31376C133.007 8.71281 133.139 9.0244 133.406 9.24856C133.671 9.47271 134.013 9.58531 134.429 9.58531ZM140.876 3.12005L140.917 4.05385C141.486 3.33918 142.228 2.98233 143.144 2.98233C144.715 2.98233 145.508 3.8689 145.522 5.64101V10.5543H144.25V5.63397C144.245 5.09822 144.122 4.70219 143.88 4.44587C143.641 4.18955 143.267 4.06088 142.76 4.06088C142.347 4.06088 141.985 4.17045 141.673 4.39058C141.363 4.61071 141.119 4.8992 140.945 5.25604V10.5543H139.674V3.12005H140.876ZM147.207 6.77484C147.207 5.61587 147.475 4.69515 148.011 4.01264C148.547 3.32611 149.257 2.98233 150.141 2.98233C151.048 2.98233 151.756 3.30298 152.265 3.94428L152.326 3.12005H153.487V10.3754C153.487 11.3373 153.201 12.0962 152.629 12.6501C152.061 13.2039 151.296 13.4813 150.334 13.4813C149.798 13.4813 149.273 13.3668 148.76 13.1376C148.247 12.9084 147.855 12.5948 147.585 12.1967L148.245 11.4338C148.79 12.1073 149.456 12.444 150.244 12.444C150.862 12.444 151.344 12.2701 151.687 11.9213C152.035 11.5735 152.209 11.083 152.209 10.4508V9.81246C151.701 10.3985 151.007 10.692 150.128 10.692C149.257 10.692 148.552 10.3412 148.011 9.64059C147.475 8.93998 147.207 7.98405 147.207 6.77484ZM148.485 6.91959C148.485 7.7579 148.657 8.41729 149.001 8.89877C149.344 9.37421 149.825 9.61243 150.443 9.61243C151.245 9.61243 151.833 9.24856 152.209 8.52081V5.12637C151.82 4.41572 151.236 4.06088 150.457 4.06088C149.839 4.06088 149.356 4.30112 149.007 4.78259C148.659 5.26307 148.485 5.97574 148.485 6.91959ZM160.072 9.81952C159.577 10.4005 158.852 10.692 157.894 10.692C157.102 10.692 156.496 10.4628 156.08 10.0045C155.667 9.54208 155.459 8.85955 155.455 7.95691V3.12005H156.726V7.92274C156.726 9.04953 157.184 9.61243 158.1 9.61243C159.072 9.61243 159.717 9.25058 160.038 8.52686V3.12005H161.309V10.5543H160.1L160.072 9.81952ZM167.907 10.5543C167.834 10.4075 167.774 10.1462 167.729 9.77126C167.138 10.3844 166.433 10.692 165.612 10.692C164.88 10.692 164.277 10.4859 163.805 10.0728C163.338 9.65666 163.104 9.12996 163.104 8.49269C163.104 7.7187 163.398 7.1186 163.984 6.69241C164.575 6.2622 165.404 6.04711 166.472 6.04711H167.708V5.4631C167.708 5.01881 167.575 4.666 167.31 4.40466C167.044 4.13929 166.653 4.0056 166.135 4.0056C165.681 4.0056 165.301 4.12019 164.994 4.34937C164.687 4.57854 164.534 4.85598 164.534 5.18065H163.255C163.255 4.80974 163.386 4.4529 163.647 4.10913C163.913 3.76134 164.27 3.48593 164.719 3.2849C165.173 3.08286 165.67 2.98233 166.21 2.98233C167.067 2.98233 167.738 3.19744 168.224 3.62765C168.709 4.05384 168.961 4.64288 168.98 5.39374V8.81634C168.98 9.49885 169.066 10.0416 169.24 10.4447V10.5543H167.907ZM165.798 9.58531C166.196 9.58531 166.574 9.48278 166.932 9.27672C167.289 9.06965 167.548 8.80226 167.708 8.47256V6.94674H166.712C165.154 6.94674 164.376 7.40307 164.376 8.31376C164.376 8.71281 164.509 9.0244 164.774 9.24856C165.039 9.47271 165.381 9.58531 165.798 9.58531ZM170.741 6.77484C170.741 5.61587 171.008 4.69515 171.544 4.01264C172.081 3.32611 172.79 2.98233 173.675 2.98233C174.581 2.98233 175.289 3.30298 175.798 3.94428L175.859 3.12005H177.021V10.3754C177.021 11.3373 176.734 12.0962 176.162 12.6501C175.594 13.2039 174.829 13.4813 173.867 13.4813C173.331 13.4813 172.806 13.3668 172.294 13.1376C171.78 12.9084 171.389 12.5948 171.119 12.1967L171.778 11.4338C172.323 12.1073 172.989 12.444 173.777 12.444C174.395 12.444 174.877 12.2701 175.221 11.9213C175.568 11.5735 175.742 11.083 175.742 10.4508V9.81246C175.234 10.3985 174.54 10.692 173.661 10.692C172.79 10.692 172.085 10.3412 171.544 9.64059C171.008 8.93998 170.741 7.98405 170.741 6.77484ZM172.018 6.91959C172.018 7.7579 172.19 8.41729 172.534 8.89877C172.878 9.37421 173.358 9.61243 173.976 9.61243C174.778 9.61243 175.367 9.24856 175.742 8.52081V5.12637C175.353 4.41572 174.769 4.06088 173.99 4.06088C173.372 4.06088 172.889 4.30112 172.541 4.78259C172.192 5.26307 172.018 5.97574 172.018 6.91959ZM182.101 10.692C181.093 10.692 180.273 10.3623 179.64 9.70191C179.008 9.0385 178.693 8.15192 178.693 7.04321V6.80901C178.693 6.07222 178.832 5.41485 179.112 4.83687C179.395 4.25589 179.789 3.80256 180.294 3.47688C180.802 3.14719 181.351 2.98233 181.942 2.98233C182.909 2.98233 183.66 3.30099 184.197 3.93726C184.733 4.57353 185 5.48521 185 6.67232V7.20104H179.964C179.982 7.93381 180.195 8.52685 180.602 8.98119C181.015 9.4295 181.537 9.65366 182.169 9.65366C182.619 9.65366 182.999 9.56217 183.31 9.37923C183.622 9.19629 183.894 8.95304 184.128 8.65048L184.905 9.25561C184.281 10.2125 183.346 10.692 182.101 10.692ZM181.942 4.02671C181.43 4.02671 180.999 4.21467 180.651 4.5896C180.303 4.96151 180.088 5.4832 180.005 6.15667H183.729V6.06018C183.692 5.41486 183.518 4.91528 183.207 4.56247C182.895 4.20563 182.474 4.02671 181.942 4.02671ZM61.4375 26.637C61.3641 26.4902 61.3048 26.2289 61.2586 25.854C60.6685 26.4671 59.9629 26.7747 59.1427 26.7747C58.4099 26.7747 57.8078 26.5686 57.3354 26.1555C56.868 25.7394 56.6348 25.2127 56.6348 24.5754C56.6348 23.8014 56.9283 23.2013 57.5143 22.7751C58.1054 22.3449 58.9346 22.1298 60.0011 22.1298H61.2385V21.5458C61.2385 21.1015 61.1058 20.7487 60.8394 20.4874C60.574 20.222 60.182 20.0883 59.6654 20.0883C59.211 20.0883 58.8311 20.2029 58.5245 20.4321C58.2169 20.6613 58.0641 20.9387 58.0641 21.2634H56.7856C56.7856 20.8924 56.9162 20.5356 57.1776 20.1919C57.443 19.8441 57.8008 19.5687 58.2491 19.3676C58.7024 19.1656 59.2 19.0651 59.7408 19.0651C60.5972 19.0651 61.2686 19.2802 61.7541 19.7104C62.2396 20.1366 62.4909 20.7256 62.51 21.4765V24.8991C62.51 25.5816 62.5965 26.1244 62.7703 26.5274V26.637H61.4375ZM59.3287 25.668C59.7267 25.668 60.1046 25.5655 60.4615 25.3594C60.8193 25.1524 61.0776 24.885 61.2385 24.5553V23.0295H60.2423C58.6843 23.0295 57.9063 23.4858 57.9063 24.3965C57.9063 24.7955 58.039 25.1071 58.3044 25.3313C58.5697 25.5554 58.9115 25.668 59.3287 25.668ZM66.2975 17.4015V19.2028H67.6856V20.1848H66.2975V24.7955C66.2975 25.0931 66.3598 25.3182 66.4834 25.469C66.6071 25.6158 66.8172 25.6891 67.1157 25.6891C67.2625 25.6891 67.4635 25.661 67.7198 25.6067V26.637C67.3861 26.7285 67.0604 26.7747 66.7448 26.7747C66.1759 26.7747 65.7477 26.6028 65.4592 26.2591C65.1707 25.9153 65.0269 25.4278 65.0269 24.7955V20.1848H63.673V19.2028H65.0269V17.4015H66.2975ZM77.3986 26.637C77.3252 26.4902 77.2659 26.2289 77.2207 25.854C76.6296 26.4671 75.924 26.7747 75.1038 26.7747C74.371 26.7747 73.7689 26.5686 73.2965 26.1555C72.8291 25.7394 72.5959 25.2127 72.5959 24.5754C72.5959 23.8014 72.8894 23.2013 73.4754 22.7751C74.0664 22.3449 74.8957 22.1298 75.9632 22.1298H77.1996V21.5458C77.1996 21.1015 77.0669 20.7487 76.8015 20.4874C76.5351 20.222 76.1441 20.0883 75.6265 20.0883C75.1721 20.0883 74.7922 20.2029 74.4856 20.4321C74.179 20.6613 74.0252 20.9387 74.0252 21.2634H72.7467C72.7467 20.8924 72.8773 20.5356 73.1387 20.1919C73.404 19.8441 73.7619 19.5687 74.2102 19.3676C74.6645 19.1656 75.1611 19.0651 75.7018 19.0651C76.5583 19.0651 77.2297 19.2802 77.7152 19.7104C78.2007 20.1366 78.452 20.7256 78.4711 21.4765V24.8991C78.4711 25.5816 78.5575 26.1244 78.7314 26.5274V26.637H77.3986ZM75.2897 25.668C75.6878 25.668 76.0657 25.5655 76.4236 25.3594C76.7804 25.1524 77.0397 24.885 77.1996 24.5553V23.0295H76.2034C74.6454 23.0295 73.8674 23.4858 73.8674 24.3965C73.8674 24.7955 74.0001 25.1071 74.2655 25.3313C74.5308 25.5554 74.8726 25.668 75.2897 25.668ZM81.7369 19.2028L81.7781 20.1366C82.346 19.4219 83.0878 19.0651 84.0046 19.0651C85.5756 19.0651 86.3677 19.9516 86.3818 21.7237V26.637H85.1102V21.7167C85.1062 21.1809 84.9826 20.7849 84.7393 20.5286C84.5011 20.2723 84.1282 20.1436 83.6196 20.1436C83.2075 20.1436 82.8456 20.2532 82.534 20.4733C82.2224 20.6934 81.9791 20.9819 81.8052 21.3388V26.637H80.5347V19.2028H81.7369ZM90.8015 24.7744L92.5334 19.2028H93.8944L90.905 27.7849C90.4427 29.0213 89.7069 29.6394 88.6997 29.6394L88.4585 29.6194L87.985 29.5299V28.4996L88.3278 28.5267C88.759 28.5267 89.0937 28.4393 89.332 28.2654C89.5742 28.0915 89.7732 27.7729 89.929 27.3105L90.2115 26.5546L87.5588 19.2028H88.947L90.8015 24.7744ZM100.392 17.4015V19.2028H101.779V20.1848H100.392V24.7955C100.392 25.0931 100.453 25.3182 100.577 25.469C100.7 25.6158 100.912 25.6891 101.209 25.6891C101.356 25.6891 101.557 25.661 101.814 25.6067V26.637C101.479 26.7285 101.154 26.7747 100.838 26.7747C100.27 26.7747 99.842 26.6028 99.5535 26.2591C99.265 25.9153 99.1203 25.4278 99.1203 24.7955V20.1848H97.7663V19.2028H99.1203V17.4015H100.392ZM104.722 26.637H103.452V19.2028H104.722V26.637ZM103.348 17.2306C103.348 17.0246 103.41 16.8497 103.534 16.7079C103.662 16.5662 103.85 16.4948 104.097 16.4948C104.344 16.4948 104.532 16.5662 104.661 16.7079C104.788 16.8497 104.853 17.0246 104.853 17.2306C104.853 17.4367 104.788 17.6086 104.661 17.7453C104.532 17.883 104.344 17.9513 104.097 17.9513C103.85 17.9513 103.662 17.883 103.534 17.7453C103.41 17.6086 103.348 17.4367 103.348 17.2306ZM108.029 19.2028L108.064 20.027C108.609 19.3857 109.344 19.0651 110.27 19.0651C111.309 19.0651 112.018 19.4631 112.393 20.2602C112.64 19.9034 112.96 19.6149 113.355 19.3948C113.754 19.1746 114.223 19.0651 114.764 19.0651C116.394 19.0651 117.223 19.9285 117.251 21.6554V26.637H115.98V21.7308C115.98 21.199 115.858 20.803 115.615 20.5427C115.373 20.2763 114.965 20.1436 114.392 20.1436C113.92 20.1436 113.528 20.2853 113.218 20.5698C112.906 20.8492 112.725 21.2272 112.674 21.7036V26.637H111.396V21.765C111.396 20.6844 110.868 20.1436 109.809 20.1436C108.975 20.1436 108.405 20.4984 108.098 21.2091V26.637H106.827V19.2028H108.029ZM122.331 26.7747C121.322 26.7747 120.503 26.445 119.871 25.7846C119.239 25.1212 118.922 24.2346 118.922 23.1259V22.8917C118.922 22.1549 119.062 21.4976 119.341 20.9196C119.626 20.3386 120.02 19.8853 120.523 19.5596C121.032 19.2299 121.582 19.0651 122.173 19.0651C123.139 19.0651 123.891 19.3837 124.426 20.02C124.962 20.6562 125.231 21.5679 125.231 22.755V23.2838H120.194C120.212 24.0165 120.425 24.6096 120.833 25.0639C121.245 25.5122 121.767 25.7364 122.399 25.7364C122.848 25.7364 123.228 25.6449 123.54 25.462C123.852 25.279 124.124 25.0358 124.358 24.7332L125.134 25.3383C124.511 26.2953 123.577 26.7747 122.331 26.7747ZM122.173 20.1094C121.659 20.1094 121.229 20.2974 120.881 20.6723C120.532 21.0442 120.317 21.5659 120.235 22.2394H123.959V22.1429C123.923 21.4976 123.748 20.998 123.437 20.6452C123.126 20.2884 122.704 20.1094 122.173 20.1094ZM126.806 25.9706C126.806 25.7504 126.87 25.5675 126.999 25.4208C127.131 25.274 127.328 25.2006 127.59 25.2006C127.85 25.2006 128.047 25.274 128.18 25.4208C128.317 25.5675 128.386 25.7504 128.386 25.9706C128.386 26.1817 128.317 26.3576 128.18 26.4993C128.047 26.642 127.85 26.7124 127.59 26.7124C127.328 26.7124 127.131 26.642 126.999 26.4993C126.87 26.3576 126.806 26.1817 126.806 25.9706Z" fill="#6A6C7B"/>
</svg>
